<svg width="31" height="19" viewBox="0 0 31 19" fill="none" xmlns="http://www.w3.org/2000/svg">
<g id="Group 2">
<g id="Rectangle 2">
<mask id="path-1-inside-1_26_34" fill="white">
<path d="M0 5C0 2.23858 2.23858 0 5 0H19V19H5C2.23858 19 0 16.7614 0 14V5Z"/>
</mask>
<path d="M-2 5C-2 1.13401 1.13401 -2 5 -2H19V2H5C3.34315 2 2 3.34315 2 5H-2ZM19 21H5C1.13401 21 -2 17.866 -2 14H2C2 15.6569 3.34315 17 5 17H19V21ZM5 21C1.13401 21 -2 17.866 -2 14V5C-2 1.13401 1.13401 -2 5 -2V2C3.34315 2 2 3.34315 2 5V14C2 15.6569 3.34315 17 5 17V21ZM19 0V19V0Z" fill="black" mask="url(#path-1-inside-1_26_34)"/>
</g>
<path id="Arrow 1" d="M30.712 9.70233C31.0999 9.30919 31.0956 8.67604 30.7025 8.28815L24.2959 1.96714C23.9027 1.57925 23.2696 1.58351 22.8817 1.97665C22.4938 2.36979 22.4981 3.00295 22.8912 3.39083L28.586 9.00951L22.9673 14.7043C22.5794 15.0974 22.5837 15.7306 22.9768 16.1185C23.3699 16.5064 24.0031 16.5021 24.391 16.109L30.712 9.70233ZM12.1669 10.12L30.0069 9.99998L29.9934 8.00002L12.1534 8.12002L12.1669 10.12Z" fill="black"/>
</g>
</svg>
